<svg width="1440" height="6964" viewBox="0 0 1440 6964" fill="none" xmlns="http://www.w3.org/2000/svg">
<g clip-path="url(#clip0_1652_1296)">
<rect width="1440" height="6964" fill="white"/>
<circle cx="357.5" cy="6306.5" r="444.5" fill="#7D6151"/>
<circle cx="357.5" cy="6306.5" r="331.242" fill="#7D6151"/>
<circle cx="357.5" cy="6306.5" r="169.887" fill="#7D6151"/>
<circle cx="1414.5" cy="5251.5" r="192.5" fill="#7D6151"/>
<circle cx="1414.5" cy="5251.5" r="143.451" fill="#7D6151"/>
<circle cx="1414.5" cy="5251.5" r="73.5733" fill="#7D6151"/>
<circle cx="121.5" cy="6070.5" r="444.5" fill="#C9BAAB"/>
<circle cx="121.5" cy="6070.5" r="331.242" fill="#C9BAAB"/>
<circle cx="121.5" cy="6070.5" r="169.887" fill="#C9BAAB"/>
<circle cx="1466.5" cy="5253.5" r="140.5" fill="#C9BAAB"/>
<circle cx="1466.5" cy="5253.5" r="104.701" fill="#C9BAAB"/>
<path d="M280.664 4170.37C12.7701 4153.08 -184.734 3958.25 -250 3863V4972H1514V3863C1413.97 3879.39 1186.77 3963.95 998.585 4028.84C849.755 4080.15 642.979 4193.74 280.664 4170.37Z" fill="url(#paint0_linear_1652_1296)"/>
<g filter="url(#filter0_d_1652_1296)">
<path d="M310.502 877.275C35.6224 898.068 -167.033 1132.42 -234 1247V-87H1576V1247C1473.36 1227.29 1240.23 1125.57 1047.14 1047.52C894.434 985.788 682.266 849.153 310.502 877.275Z" fill="url(#paint1_linear_1652_1296)"/>
</g>
<path d="M1120.46 3178.08C1384.25 3199.56 1578.73 3441.64 1643 3560V2182H-94V3560C4.50208 3539.64 228.225 3434.56 413.526 3353.94C560.078 3290.17 763.689 3149.03 1120.46 3178.08Z" fill="url(#paint2_linear_1652_1296)"/>
<path d="M418.448 4276.6C190.04 4265.21 21.6459 4136.79 -34 4074V4805H1470V4074C1384.71 4084.8 1191 4140.54 1030.55 4183.31C903.66 4217.14 727.361 4292.01 418.448 4276.6Z" fill="url(#paint3_linear_1652_1296)"/>
<g filter="url(#filter1_d_1652_1296)">
<path d="M1000.77 3072.36C1225.54 3088.37 1391.24 3268.79 1446 3357V2330H-34.0001V3357C49.928 3341.83 240.55 3263.51 398.434 3203.43C523.303 3155.9 696.788 3050.71 1000.77 3072.36Z" fill="url(#paint4_linear_1652_1296)"/>
</g>
<path d="M1010.87 2791.36C1236.09 2807.37 1402.13 2987.79 1457 3076V2049H-26V3076C58.0983 3060.83 249.107 2982.51 407.311 2922.43C532.433 2874.9 706.27 2769.71 1010.87 2791.36Z" fill="url(#paint5_linear_1652_1296)"/>
<rect x="-87" y="6307" width="1694" height="573" fill="url(#paint6_linear_1652_1296)"/>
<line x1="1103" y1="6700.5" x2="1365" y2="6700.5" stroke="white"/>
<rect x="-168" y="6880" width="1694" height="90" fill="#654C43"/>
</g>
<defs>
<filter id="filter0_d_1652_1296" x="-263.7" y="-90.7" width="1869.4" height="1393.4" filterUnits="userSpaceOnUse" color-interpolation-filters="sRGB">
<feFlood flood-opacity="0" result="BackgroundImageFix"/>
<feColorMatrix in="SourceAlpha" type="matrix" values="0 0 0 0 0 0 0 0 0 0 0 0 0 0 0 0 0 0 127 0" result="hardAlpha"/>
<feOffset dy="26"/>
<feGaussianBlur stdDeviation="14.85"/>
<feComposite in2="hardAlpha" operator="out"/>
<feColorMatrix type="matrix" values="0 0 0 0 0 0 0 0 0 0 0 0 0 0 0 0 0 0 0.28 0"/>
<feBlend mode="normal" in2="BackgroundImageFix" result="effect1_dropShadow_1652_1296"/>
<feBlend mode="normal" in="SourceGraphic" in2="effect1_dropShadow_1652_1296" result="shape"/>
</filter>
<filter id="filter1_d_1652_1296" x="-128.6" y="2288.4" width="1669.2" height="1216.2" filterUnits="userSpaceOnUse" color-interpolation-filters="sRGB">
<feFlood flood-opacity="0" result="BackgroundImageFix"/>
<feColorMatrix in="SourceAlpha" type="matrix" values="0 0 0 0 0 0 0 0 0 0 0 0 0 0 0 0 0 0 127 0" result="hardAlpha"/>
<feOffset dy="53"/>
<feGaussianBlur stdDeviation="47.3"/>
<feComposite in2="hardAlpha" operator="out"/>
<feColorMatrix type="matrix" values="0 0 0 0 0 0 0 0 0 0 0 0 0 0 0 0 0 0 0.28 0"/>
<feBlend mode="normal" in2="BackgroundImageFix" result="effect1_dropShadow_1652_1296"/>
<feBlend mode="normal" in="SourceGraphic" in2="effect1_dropShadow_1652_1296" result="shape"/>
</filter>
<linearGradient id="paint0_linear_1652_1296" x1="632" y1="4972" x2="632" y2="3863" gradientUnits="userSpaceOnUse">
<stop stop-color="white"/>
<stop offset="1" stop-color="#A1876E"/>
</linearGradient>
<linearGradient id="paint1_linear_1652_1296" x1="671" y1="-87" x2="671" y2="1247" gradientUnits="userSpaceOnUse">
<stop stop-color="white"/>
<stop offset="1" stop-color="#A1876E"/>
</linearGradient>
<linearGradient id="paint2_linear_1652_1296" x1="774.5" y1="2182" x2="774.5" y2="3560" gradientUnits="userSpaceOnUse">
<stop stop-color="white"/>
<stop offset="1" stop-color="#A1876E"/>
</linearGradient>
<linearGradient id="paint3_linear_1652_1296" x1="718" y1="4805" x2="718" y2="4074" gradientUnits="userSpaceOnUse">
<stop stop-color="white"/>
<stop offset="1" stop-color="#A1876E"/>
</linearGradient>
<linearGradient id="paint4_linear_1652_1296" x1="706" y1="2330" x2="706" y2="3357" gradientUnits="userSpaceOnUse">
<stop stop-color="white"/>
<stop offset="1" stop-color="#A1876E"/>
</linearGradient>
<linearGradient id="paint5_linear_1652_1296" x1="715.5" y1="2049" x2="715.5" y2="3076" gradientUnits="userSpaceOnUse">
<stop stop-color="white"/>
<stop offset="1" stop-color="#A1876E"/>
</linearGradient>
<linearGradient id="paint6_linear_1652_1296" x1="879.781" y1="6880" x2="620.958" y2="6315.84" gradientUnits="userSpaceOnUse">
<stop stop-color="white"/>
<stop offset="1" stop-color="#A1876E"/>
</linearGradient>
<clipPath id="clip0_1652_1296">
<rect width="1440" height="6964" fill="white"/>
</clipPath>
</defs>
</svg>
